<?xml version="1.0" encoding="UTF-8" ?>
<!DOCTYPE svg PUBLIC "-//W3C//DTD SVG 1.1//EN" "http://www.w3.org/Graphics/SVG/1.1/DTD/svg11.dtd">
<svg width="690pt" height="697pt" viewBox="0 0 690 697" version="1.1" xmlns="http://www.w3.org/2000/svg">
<g id="#ffffffff">
<path fill="#ffffff" opacity="1.00" d=" M 199.28 36.25 C 275.65 -0.44 365.96 -6.34 446.68 19.10 C 522.47 42.92 589.06 94.33 631.71 161.30 C 651.78 192.88 666.87 227.66 675.76 264.02 C 687.61 312.00 689.06 362.46 680.37 411.09 C 673.25 450.69 659.02 488.98 638.74 523.72 C 599.67 590.86 536.96 643.88 464.26 671.24 C 379.40 703.11 281.54 699.51 199.67 660.33 C 142.90 633.41 93.60 590.65 59.62 537.74 C 66.97 537.96 74.33 537.95 81.69 537.90 C 104.80 569.20 132.67 597.21 165.01 618.98 C 234.77 666.40 323.78 684.14 406.43 667.48 C 427.86 662.98 448.95 656.67 469.17 648.23 C 532.59 621.14 586.88 573.23 621.68 513.68 C 643.45 476.42 657.83 434.83 663.49 392.03 C 664.57 384.39 665.08 376.69 666.06 369.04 C 666.49 352.58 667.17 336.01 665.06 319.63 C 660.42 261.77 639.32 205.53 605.73 158.27 C 574.52 114.16 531.72 78.55 483.34 54.66 C 450.30 38.65 414.43 28.87 378.07 24.28 C 367.78 22.80 357.36 22.85 347.00 22.68 C 305.52 21.96 264.09 30.31 225.58 45.53 C 197.34 56.77 170.67 71.99 146.80 90.81 C 121.68 110.77 99.15 134.12 80.74 160.43 C 73.14 160.62 65.54 160.37 57.94 160.60 C 92.70 107.46 141.90 63.63 199.28 36.25 Z" />
<path fill="#ffffff" opacity="1.00" d=" M 279.72 103.66 C 348.57 84.46 425.35 97.45 484.42 137.57 C 511.62 156.22 535.47 179.88 553.51 207.54 C 564.92 225.01 574.76 243.63 581.54 263.41 C 597.36 308.57 600.07 358.17 589.65 404.86 C 581.83 440.89 565.32 474.75 542.98 503.99 C 520.90 532.74 492.39 556.45 460.31 573.28 C 423.78 592.65 382.29 602.09 341.00 601.46 C 281.68 600.61 222.51 578.04 178.79 537.70 C 188.23 538.10 197.67 537.78 207.10 538.01 C 210.28 537.84 212.76 540.06 215.25 541.69 C 253.49 568.56 300.45 582.10 347.05 581.63 C 388.20 581.39 429.03 569.47 464.18 548.14 C 520.05 514.08 560.19 455.45 571.98 391.10 C 573.31 384.10 573.95 376.99 575.34 370.00 C 576.09 355.45 576.17 340.84 575.37 326.29 C 572.51 305.26 568.07 284.32 560.32 264.52 C 545.40 225.56 519.91 190.72 487.24 164.76 C 438.47 125.40 372.96 107.92 311.03 117.15 C 275.02 122.54 240.38 136.61 210.76 157.79 C 208.08 160.16 204.37 160.24 200.99 160.51 C 192.95 160.96 184.90 160.08 176.85 160.37 C 205.97 133.64 241.59 114.05 279.72 103.66 Z" />
<path fill="#ffffff" opacity="1.00" d=" M 26.06 226.21 C 30.94 211.78 37.40 197.90 44.67 184.52 C 96.45 184.50 148.23 184.87 200.00 184.40 C 176.00 207.50 158.00 236.52 147.09 267.94 C 137.69 294.89 131.62 323.23 131.23 351.85 C 149.31 351.40 167.40 352.19 185.49 351.63 C 185.83 393.01 185.47 434.39 185.59 475.76 C 185.45 488.37 185.52 501.02 185.87 513.65 C 180.93 512.93 175.92 513.55 170.95 513.43 C 130.94 514.13 90.93 513.21 50.92 513.70 C 49.20 513.69 47.42 513.73 45.79 513.09 C 43.42 512.08 42.92 509.29 41.75 507.27 C 18.66 462.10 5.09 411.83 4.12 361.02 C 4.17 353.35 3.22 345.70 3.68 338.03 C 5.70 299.97 12.37 261.89 26.06 226.21 Z" />
<path fill="#ffffff" opacity="1.00" d=" M 293.03 205.12 C 303.86 205.48 314.75 204.36 325.54 205.58 C 328.89 206.50 327.96 210.61 327.49 213.15 C 317.54 264.85 308.19 316.66 298.03 368.32 C 286.57 369.04 274.99 370.08 263.59 368.07 C 263.00 366.46 262.04 364.82 262.63 363.06 C 270.42 319.96 278.79 276.96 286.83 233.90 C 288.81 224.29 289.85 214.45 293.03 205.12 Z" />
<path fill="#ffffff" opacity="1.00" d=" M 338.80 207.96 C 339.28 205.66 341.95 205.06 343.96 205.10 C 382.97 205.08 421.99 205.10 461.00 205.09 C 467.60 205.22 474.41 204.35 480.73 206.81 C 479.18 214.85 478.56 223.14 475.96 230.93 C 473.36 233.63 469.33 232.51 466.01 232.85 C 452.14 233.57 438.25 232.42 424.37 232.97 C 416.16 276.31 408.00 319.67 399.86 363.03 C 399.32 365.07 399.00 367.90 396.75 368.75 C 384.63 368.88 372.35 370.17 360.36 367.68 C 367.88 322.69 376.83 277.95 385.47 233.17 C 373.65 232.59 361.82 232.89 350.00 233.12 C 344.73 233.03 339.34 233.10 334.36 231.11 C 335.85 223.40 336.78 215.56 338.80 207.96 Z" />
<path fill="#ffffff" opacity="1.00" d=" M 222.02 413.09 C 223.60 401.41 234.27 391.94 245.92 391.16 C 254.56 390.42 263.23 391.05 271.89 390.93 C 270.95 394.38 269.89 397.79 268.92 401.23 C 260.63 401.34 252.33 400.64 244.04 401.28 C 238.43 401.81 233.91 406.65 232.78 412.03 C 232.90 413.35 233.52 414.61 234.43 415.58 C 240.31 421.22 247.85 424.70 253.90 430.11 C 257.71 433.59 260.40 438.75 259.52 444.02 C 258.41 454.81 250.57 466.18 239.02 467.08 C 227.79 467.62 216.54 467.07 205.30 467.10 C 206.43 463.78 206.91 459.99 209.20 457.22 C 219.34 456.17 229.60 458.41 239.72 456.87 C 245.84 455.44 251.03 447.63 247.18 441.84 C 240.78 434.01 229.73 431.53 224.00 422.99 C 221.91 420.16 221.45 416.48 222.02 413.09 Z" />
<path fill="#ffffff" opacity="1.00" d=" M 287.39 391.07 C 290.62 390.87 293.87 390.89 297.11 390.94 C 294.66 400.27 291.97 409.54 289.01 418.72 C 295.19 415.41 302.39 411.92 309.51 414.36 C 316.08 415.74 321.08 422.80 319.29 429.45 C 315.95 442.31 312.00 455.01 308.50 467.83 C 305.25 467.86 301.99 467.86 298.74 467.85 C 301.87 456.51 305.45 445.29 308.27 433.86 C 309.76 428.90 305.20 423.12 300.00 423.61 C 292.70 423.84 286.75 429.83 284.41 436.43 C 281.01 446.67 278.48 457.17 275.47 467.53 C 272.21 467.54 268.95 467.55 265.70 467.53 C 272.92 442.04 280.26 416.58 287.39 391.07 Z" />
<path fill="#ffffff" opacity="1.00" d=" M 347.96 417.94 C 353.81 414.95 360.58 414.25 367.04 415.20 C 374.44 415.61 380.94 421.72 382.12 428.98 C 382.88 432.73 381.61 436.45 380.75 440.07 C 378.29 449.53 375.30 458.84 372.76 468.28 C 369.20 468.29 365.65 468.30 362.09 468.28 C 365.61 458.28 368.01 447.95 370.86 437.76 C 372.02 434.06 371.24 429.40 367.90 427.08 C 364.67 425.07 360.67 424.92 356.98 425.25 C 345.55 426.90 336.43 438.12 337.21 449.66 C 338.08 455.59 344.22 459.65 350.00 459.24 C 355.82 459.32 360.14 454.93 364.53 451.76 C 363.00 456.40 362.26 461.43 359.62 465.63 C 353.98 469.30 346.78 469.56 340.31 468.65 C 332.50 467.46 326.75 459.80 326.86 452.05 C 326.80 437.95 335.30 424.16 347.96 417.94 Z" />
<path fill="#ffffff" opacity="1.00" d=" M 396.42 432.18 C 399.36 421.13 411.45 413.74 422.62 415.47 C 426.42 416.04 429.67 418.35 432.17 421.17 C 438.19 417.21 445.61 414.02 452.91 416.09 C 457.50 417.05 461.71 420.53 462.69 425.25 C 463.36 428.32 462.15 431.33 461.36 434.26 C 458.13 445.80 454.63 457.26 451.61 468.85 C 448.19 468.84 444.78 468.77 441.36 468.77 C 444.88 457.44 448.00 445.99 451.65 434.71 C 452.90 431.18 451.37 426.55 447.66 425.27 C 441.09 423.97 435.39 429.50 433.40 435.29 C 429.80 446.30 427.07 457.57 423.82 468.68 C 420.55 468.67 417.28 468.68 414.02 468.65 C 417.42 457.07 421.05 445.56 423.94 433.84 C 424.95 430.48 423.49 425.96 419.79 425.06 C 413.72 423.42 407.84 428.27 405.79 433.72 C 401.78 445.13 399.11 456.96 395.61 468.53 C 392.33 468.53 389.06 468.54 385.79 468.51 C 389.69 456.50 392.35 444.13 396.42 432.18 Z" />
<path fill="#ffffff" opacity="1.00" d=" M 480.19 420.13 C 491.40 414.83 504.11 417.31 516.04 416.87 C 515.13 419.82 514.21 422.77 513.44 425.77 C 504.40 426.38 495.10 424.62 486.28 427.30 C 483.15 428.01 482.43 433.27 485.60 434.43 C 492.89 438.21 502.80 438.82 507.24 446.67 C 510.66 457.34 501.20 469.48 490.05 469.17 C 480.79 469.45 471.53 468.95 462.27 469.15 C 463.19 465.72 464.16 462.32 465.11 458.90 C 474.38 458.70 483.66 459.66 492.94 459.18 C 495.87 458.52 496.77 455.19 498.25 452.97 C 492.26 448.47 484.69 447.25 478.15 443.84 C 475.17 442.36 472.79 439.42 472.62 436.02 C 472.15 429.95 475.15 423.55 480.19 420.13 Z" />
</g>
</svg>
