<svg width="64" height="64" viewBox="0 0 64 64" xmlns="http://www.w3.org/2000/svg"><g fill="none" fill-rule="evenodd"><path d="M0 71.96h64V92.04H0z"></path><g><rect fill="#F4BBE1" width="64" height="64" rx="12"></rect><path d="M18.96 44.05a4.468 4.468 0 0 1 4.462 4.475A4.468 4.468 0 0 1 18.96 53a4.468 4.468 0 0 1-4.461-4.475 4.468 4.468 0 0 1 4.46-4.476zM37.148 11C43.97 11 49.5 16.55 49.5 23.394c0 6.722-5.335 12.195-11.989 12.388l-.364.005H26.59l-1.573 5.507H16.45l3.935-13.77h16.763a4.124 4.124 0 0 0 4.118-4.13c0-2.2-1.714-3.999-3.876-4.124l-.242-.007H22.815L25.176 11h11.971z" fill="#12151A" fill-rule="nonzero"></path></g></g></svg>