<svg width="512" height="512" viewBox="0 0 512 512" fill="none" xmlns="http://www.w3.org/2000/svg">
<path d="M315.961 311.974L306.14 329.028C303.181 334.165 297.704 337.331 291.776 337.331H216.542C210.613 337.331 205.136 334.165 202.178 329.028L192.356 311.974H315.961ZM343.455 264.234L326.138 294.302H182.178L164.863 264.234H343.455ZM326.774 217.55L343.482 246.562H164.835L181.543 217.55H326.774ZM291.776 173.417C297.704 173.417 303.181 176.583 306.14 181.721L316.597 199.877H191.72L202.178 181.721C205.136 176.583 210.613 173.417 216.542 173.417H291.776Z" fill="#00435B"/>
<path d="M107.046 165.504C98.7115 125.092 96.923 94.0965 102.31 71.5894C105.514 58.2034 111.372 47.2834 120.279 39.4048C129.682 31.087 141.571 27.0054 154.929 27.0054C176.967 27.0054 200.133 37.0548 224.891 56.1459C234.989 63.9328 245.47 73.3187 256.355 84.3088C257.221 83.1935 258.2 82.1415 259.291 81.1692C290.064 53.7465 315.972 36.7084 338.131 30.139C351.307 26.2329 363.678 25.8608 374.943 29.6518C386.834 33.6535 396.309 41.9256 402.993 53.5122C414.026 72.6342 416.935 97.7607 412.822 128.785C411.145 141.431 408.279 155.207 404.23 170.132C405.757 170.317 407.289 170.655 408.805 171.158C447.849 184.096 475.496 198.01 492.234 213.911C502.193 223.372 508.696 233.905 511.047 245.563C513.528 257.869 511.109 270.213 504.432 281.791C493.42 300.885 473.173 315.945 444.329 327.873C432.747 332.662 419.642 337 405.001 340.901C405.669 342.41 406.187 344.012 406.534 345.692C414.868 386.104 416.656 417.1 411.269 439.607C408.065 452.993 402.208 463.913 393.301 471.792C383.898 480.109 372.009 484.191 358.65 484.191C336.613 484.191 313.446 474.142 288.688 455.05C278.482 447.181 267.886 437.678 256.877 426.536C255.744 428.308 254.353 429.955 252.709 431.421C221.936 458.843 196.028 475.882 173.869 482.451C160.693 486.357 148.322 486.729 137.057 482.938C125.166 478.936 115.691 470.664 109.007 459.078C97.9745 439.956 95.0651 414.829 99.1782 383.804C100.915 370.701 103.93 356.386 108.214 340.835C106.539 340.665 104.858 340.311 103.195 339.76C64.1511 326.821 36.504 312.907 19.7658 297.006C9.80704 287.546 3.30382 277.013 0.952954 265.354C-1.52839 253.048 0.891113 240.705 7.56804 229.127C18.5796 210.033 38.8267 194.973 67.6713 183.045C79.5985 178.112 93.1401 173.659 108.312 169.669C107.772 168.345 107.345 166.954 107.046 165.504Z" fill="#002B3B"/>
<path d="M379.294 349.665C383.176 348.977 386.896 351.466 387.763 355.284L387.811 355.51L388.224 357.659C401.644 428.212 392.191 463.489 359.865 463.489C328.237 463.489 287.975 433.388 239.08 373.184C237.999 371.854 237.417 370.189 237.431 368.475C237.466 364.484 240.67 361.261 244.633 361.175L244.863 361.173L247.438 361.192C268.013 361.303 288.016 360.586 307.445 359.039C330.38 357.214 354.33 354.089 379.294 349.665ZM157.292 296.334L157.416 296.543L158.707 298.798C169.061 316.798 179.848 333.882 191.069 350.051C204.283 369.092 219.143 388.369 235.649 407.88C238.203 410.898 237.911 415.379 235.031 418.043L234.843 418.211L233.182 419.64C178.57 466.434 143.075 475.775 126.695 447.665C110.663 420.149 116.475 370.118 144.134 297.57C144.742 295.976 145.884 294.642 147.366 293.797C150.829 291.82 155.219 292.962 157.292 296.334ZM407.007 192.226L407.23 192.299L409.286 193.009C476.695 216.458 502.306 242.228 486.118 270.318C470.285 297.791 424.258 317.793 348.036 330.326C346.336 330.605 344.592 330.28 343.107 329.407C339.599 327.345 338.428 322.831 340.49 319.323C351.407 300.753 361.239 282.275 369.987 263.89C379.908 243.039 389.218 220.659 397.918 196.749C399.237 193.124 403.112 191.155 406.782 192.161L407.007 192.226ZM168.893 180.42C172.4 182.482 173.572 186.997 171.51 190.504C160.593 209.075 150.76 227.552 142.013 245.937C132.092 266.788 122.781 289.168 114.081 313.078C112.736 316.778 108.729 318.752 104.993 317.601L104.769 317.528L102.714 316.818C35.3042 293.369 9.69358 267.6 25.8818 239.509C41.7145 212.036 87.7419 192.034 163.964 179.501C165.664 179.222 167.408 179.547 168.893 180.42ZM385.304 64.9249C401.337 92.4408 395.524 142.472 367.866 215.019C367.258 216.614 366.116 217.947 364.634 218.793C361.171 220.77 356.781 219.628 354.708 216.256L354.584 216.047L353.292 213.792C342.939 195.792 332.151 178.707 320.931 162.539C307.716 143.498 292.856 124.221 276.35 104.71C273.797 101.691 274.088 97.2111 276.969 94.5466L277.157 94.379L278.817 92.9496C333.429 46.156 368.925 36.8144 385.304 64.9249ZM154.897 48.1798C186.525 48.1798 226.787 78.2814 275.683 138.485C276.763 139.815 277.346 141.48 277.331 143.194C277.296 147.185 274.092 150.408 270.129 150.494L269.9 150.496L267.325 150.477C246.749 150.366 226.747 151.083 207.317 152.63C184.382 154.455 160.432 157.58 135.468 162.004C131.586 162.692 127.866 160.203 126.999 156.385L126.952 156.159L126.538 154.01C113.118 83.4565 122.571 48.1798 154.897 48.1798Z" fill="#FF4154"/>
<path d="M222.589 174.338H285.741C294.977 174.338 303.507 179.278 308.104 187.288L339.814 242.54C344.375 250.488 344.375 260.26 339.814 268.208L308.104 323.46C303.507 331.47 294.977 336.41 285.741 336.41H222.589C213.354 336.41 204.823 331.47 200.226 323.46L168.517 268.208C163.955 260.26 163.955 250.488 168.517 242.54L200.226 187.288C204.823 179.278 213.354 174.338 222.589 174.338ZM276.116 191.014C285.357 191.014 293.891 195.959 298.486 203.976L320.598 242.552C325.15 250.494 325.15 260.254 320.598 268.197L298.486 306.772C293.891 314.789 285.357 319.734 276.116 319.734H232.214C222.974 319.734 214.44 314.789 209.844 306.772L187.733 268.197C183.18 260.254 183.18 250.494 187.733 242.552L209.844 203.976C214.44 195.959 222.974 191.014 232.214 191.014H276.116ZM265.742 209.254H242.588C233.357 209.254 224.831 214.189 220.232 222.193L208.547 242.529C203.977 250.483 203.977 260.266 208.547 268.22L220.232 288.556C224.831 296.559 233.357 301.494 242.588 301.494H265.742C274.973 301.494 283.5 296.559 288.099 288.556L299.783 268.22C304.353 260.266 304.353 250.483 299.783 242.529L288.099 222.193C283.5 214.189 274.973 209.254 265.742 209.254ZM255.753 226.712C264.977 226.712 273.498 231.639 278.1 239.634L279.756 242.512C284.339 250.474 284.339 260.274 279.756 268.236L278.1 271.114C273.498 279.109 264.977 284.036 255.753 284.036H252.578C243.354 284.036 234.832 279.109 230.231 271.114L228.574 268.236C223.991 260.274 223.991 250.474 228.574 242.512L230.231 239.634C234.832 231.639 243.354 226.712 252.578 226.712H255.753ZM254.169 243.909C250.064 243.909 246.278 246.094 244.228 249.642C242.179 253.189 242.179 257.56 244.228 261.107C246.278 264.654 250.064 266.839 254.161 266.839C258.267 266.839 262.053 264.654 264.103 261.107C266.152 257.56 266.152 253.189 264.103 249.642C262.053 246.094 258.267 243.909 254.169 243.909ZM161.151 255.374H181.793H161.151Z" fill="#FFD94C"/>
</svg>
