<svg width="512" height="512" viewBox="0 0 512 512" fill="none" xmlns="http://www.w3.org/2000/svg">
<path d="M156.132 302.175C181.768 302.175 202.549 281.393 202.549 255.758C202.549 230.122 181.768 209.34 156.132 209.34C130.496 209.34 109.714 230.122 109.714 255.758C109.714 281.393 130.496 302.175 156.132 302.175ZM46.4176 395.01C72.0533 395.01 92.8352 374.228 92.8352 348.593C92.8352 322.957 72.0533 302.175 46.4176 302.175C20.7819 302.175 0 322.957 0 348.593C0 374.228 20.7819 395.01 46.4176 395.01ZM465.582 395.01C491.218 395.01 512 374.228 512 348.593C512 322.957 491.218 302.175 465.582 302.175C439.947 302.175 419.165 322.957 419.165 348.593C419.165 374.228 439.947 395.01 465.582 395.01Z" fill="black"/>
<path d="M313.131 257.714C311.647 242.206 310.891 229.298 299.011 220.226C283.965 208.737 266.922 216.192 245.929 208.615C225.301 203.624 210 185.309 210 163.479C210 137.809 231.156 117 257.253 117C276.581 117 293.199 128.415 300.519 144.765C311.722 166.044 304.441 187.7 318.516 198.608C335.183 211.524 357.652 202.066 382.724 214.303C390.78 218.005 397.599 223.877 402.404 231.154C407.209 238.431 410 247.113 410 256.437C410 278.267 394.699 296.582 374.071 301.572C353.078 309.15 336.035 301.695 320.989 313.184C304.07 326.103 313.128 347.717 299.339 370.549C291.512 385.583 275.604 395.873 257.253 395.873C231.156 395.873 210 375.064 210 349.394C210 330.747 221.164 314.665 237.276 307.261C262.348 295.024 284.817 304.482 301.484 291.566C311.098 284.115 313.131 272.621 313.131 257.714Z" fill="#D0021B"/>
</svg>
